<?xml version="1.0" standalone="no"?>
<!DOCTYPE svg PUBLIC "-//W3C//DTD SVG 20010904//EN"
 "http://www.w3.org/TR/2001/REC-SVG-20010904/DTD/svg10.dtd">
<svg version="1.0" xmlns="http://www.w3.org/2000/svg"
 width="1835.000000pt" height="1835.000000pt" viewBox="0 0 1835.000000 1835.000000"
 preserveAspectRatio="xMidYMid meet">
<metadata>
Created by potrace 1.14, written by Peter Selinger 2001-2017
</metadata>
<g transform="translate(0.000000,1835.000000) scale(0.100000,-0.100000)"
fill="#000000" stroke="none">
<path d="M4729 15188 c-151 -145 -409 -394 -574 -553 -165 -159 -541 -521
-835 -805 -294 -283 -607 -584 -695 -669 -88 -84 -172 -165 -187 -180 l-28
-26 333 -333 333 -333 319 308 c176 169 561 539 855 822 294 284 663 639 820
790 384 370 590 572 590 580 0 3 -148 154 -329 335 l-329 329 -273 -265z"/>
<path d="M13042 15117 l-333 -333 118 -115 c65 -63 305 -294 533 -514 229
-220 656 -632 950 -916 793 -764 981 -944 988 -947 4 -1 156 147 337 329 l330
330 -101 97 c-55 53 -280 270 -500 481 -219 211 -464 448 -544 526 -80 77
-327 316 -550 530 -378 364 -527 508 -790 762 l-106 103 -332 -333z"/>
<path d="M8845 14383 c-264 -15 -670 -72 -935 -133 -759 -174 -1497 -519
-2128 -994 -859 -647 -1540 -1570 -1927 -2611 -160 -432 -255 -844 -312 -1350
-26 -231 -26 -929 0 -1160 71 -632 206 -1147 442 -1680 639 -1444 1771 -2513
3245 -3065 438 -164 896 -268 1420 -322 201 -21 924 -17 1125 5 722 82 1299
250 1930 562 1075 531 1922 1347 2482 2390 335 623 545 1285 627 1975 60 501
54 1065 -15 1545 -172 1198 -743 2332 -1610 3196 -414 412 -876 748 -1404
1020 -715 368 -1416 563 -2225 619 -133 9 -570 11 -715 3z m700 -953 c1066
-78 1965 -450 2745 -1136 149 -131 439 -428 556 -569 581 -703 911 -1469 1024
-2377 74 -602 36 -1274 -106 -1838 -79 -315 -178 -588 -323 -885 -448 -917
-1273 -1737 -2196 -2180 -492 -237 -1000 -373 -1599 -430 -185 -17 -688 -20
-871 -5 -1159 98 -2117 542 -2935 1360 -813 814 -1257 1765 -1356 2905 -22
261 -15 804 15 1045 94 765 323 1394 727 2000 472 708 1168 1321 1899 1670
548 262 1045 388 1750 443 100 8 544 6 670 -3z"/>
<path d="M9942 9367 l-1423 -1422 -740 744 -740 745 -342 -342 -342 -342 1083
-1083 1082 -1082 1762 1762 1763 1763 -340 340 -340 340 -1423 -1423z"/>
</g>
</svg>
